<?xml version="1.0" standalone="no"?>
<!DOCTYPE svg PUBLIC "-//W3C//DTD SVG 20010904//EN"
 "http://www.w3.org/TR/2001/REC-SVG-20010904/DTD/svg10.dtd">
<svg version="1.0" xmlns="http://www.w3.org/2000/svg"
 width="16.000000pt" height="16.000000pt" viewBox="0 0 16.000000 16.000000"
 preserveAspectRatio="xMidYMid meet">
<metadata>
Created by potrace 1.11, written by Peter Selinger 2001-2013
</metadata>
<g transform="translate(0.000000,16.000000) scale(0.004396,-0.004396)"
fill="#000000" stroke="none">
<path d="M861 3599 c-119 -23 -147 -37 -205 -101 -80 -88 -110 -143 -110 -200
0 -37 6 -54 25 -74 39 -43 133 -81 278 -114 374 -85 423 -100 480 -148 l34
-28 -24 -70 c-12 -38 -24 -73 -25 -79 -44 -193 -53 -283 -49 -510 2 -110 6
-211 9 -224 3 -13 8 -49 12 -80 3 -31 8 -59 10 -62 2 -3 6 -19 8 -35 24 -127
65 -266 111 -370 l23 -52 -22 -36 c-42 -70 -121 -104 -231 -100 -90 3 -169 20
-374 81 -233 68 -298 82 -372 79 -95 -4 -139 -52 -137 -151 0 -73 8 -84 106
-146 196 -123 281 -198 651 -573 141 -142 308 -303 371 -358 131 -113 279
-218 307 -218 11 0 42 7 71 15 101 30 153 130 155 298 1 87 -8 226 -17 274 -3
12 -8 53 -11 90 -4 37 -9 70 -10 73 -2 3 -6 32 -10 65 -3 33 -8 74 -10 90 -7
46 -7 226 0 260 3 17 10 44 16 62 10 30 8 35 -28 74 -184 198 -324 510 -379
846 -10 60 -11 234 -2 283 5 25 10 56 13 70 2 14 10 42 17 63 l13 37 35 -31
c110 -95 210 -139 236 -104 39 53 -62 318 -187 489 l-28 39 22 31 c66 93 166
156 289 182 104 23 277 22 413 -1 102 -18 221 -41 370 -71 167 -34 198 -40
253 -48 239 -37 260 -34 330 43 68 75 65 154 -7 229 -169 174 -686 266 -936
167 -98 -39 -201 -57 -345 -59 -66 -1 -239 15 -310 28 -14 3 -41 7 -60 10 -19
3 -46 8 -60 10 -81 15 -220 39 -250 43 -19 2 -48 6 -65 9 -52 10 -348 12 -394
3z m660 -2565 c33 -17 79 -64 100 -104 34 -62 -1 -210 -58 -247 -32 -21 -72
-12 -139 33 -100 67 -163 148 -179 231 -7 38 10 85 37 102 53 33 158 27 239
-15z"/>
</g>
</svg>
